<svg xmlns="http://www.w3.org/2000/svg" xmlns:xlink="http://www.w3.org/1999/xlink" width="394" zoomAndPan="magnify" viewBox="0 0 295.5 182.249993" height="243" preserveAspectRatio="xMidYMid meet" version="1.2"><defs><clipPath id="d520f19920"><path d="M 1 3 L 126.585938 3 L 126.585938 149 L 1 149 Z M 1 3 "/></clipPath></defs><g id="17081adaae"><g clip-rule="nonzero" clip-path="url(#d520f19920)"><path style=" stroke:none;fill-rule:nonzero;fill:#eb690a;fill-opacity:1;" d="M 34.703125 103.042969 C 34.046875 100.207031 35.621094 97.308594 38.367188 96.363281 L 47.128906 93.269531 L 45.554688 88.824219 C 41.890625 78.417969 47.355469 66.953125 57.746094 63.285156 C 68.136719 59.613281 79.585938 65.089844 83.25 75.496094 L 84.824219 79.9375 L 93.582031 76.84375 C 96.332031 75.867188 99.367188 77.128906 100.625 79.738281 L 120.890625 121.476562 L 126.386719 52.847656 C 126.703125 48.863281 123.980469 45.28125 120.089844 44.507812 L 107.636719 42.070312 L 108.867188 35.734375 C 111.761719 20.886719 102.085938 6.46875 87.257812 3.542969 C 72.429688 0.648438 58.035156 10.335938 55.113281 25.1875 L 53.882812 31.523438 L 41.429688 29.085938 C 37.511719 28.3125 33.644531 30.605469 32.445312 34.417969 L 1.875 131.164062 C 0.414062 135.78125 3.304688 140.652344 8.054688 141.597656 L 45.238281 148.910156 Z M 105.40625 53.566406 C 105.035156 55.457031 103.203125 56.691406 101.3125 56.316406 C 99.421875 55.945312 98.191406 54.109375 98.566406 52.21875 C 98.9375 50.328125 100.769531 49.09375 102.65625 49.464844 C 104.519531 49.839844 105.777344 51.671875 105.40625 53.566406 Z M 62.011719 26.5625 C 64.1875 15.527344 74.894531 8.300781 85.941406 10.453125 C 96.988281 12.601562 104.175781 23.351562 102.027344 34.417969 L 100.796875 40.753906 L 60.78125 32.898438 Z M 55.773438 40.265625 C 57.660156 40.636719 58.890625 42.472656 58.519531 44.363281 C 58.148438 46.257812 56.316406 47.488281 54.425781 47.117188 C 52.539062 46.742188 51.308594 44.910156 51.679688 43.015625 C 52.023438 41.125 53.855469 39.890625 55.773438 40.265625 Z M 55.773438 40.265625 "/></g><path style=" stroke:none;fill-rule:nonzero;fill:#eb690a;fill-opacity:1;" d="M 78.441406 77.1875 C 75.722656 69.445312 67.191406 65.347656 59.4375 68.097656 C 51.707031 70.824219 47.613281 79.363281 50.363281 87.132812 L 51.9375 91.578125 L 80.015625 81.660156 Z M 78.441406 77.1875 "/><path style=" stroke:none;fill-rule:nonzero;fill:#eb690a;fill-opacity:1;" d="M 51.507812 98.085938 C 50.191406 98.542969 49.476562 100.003906 49.960938 101.351562 C 50.417969 102.671875 51.878906 103.386719 53.222656 102.898438 C 54.542969 102.441406 55.257812 100.980469 54.769531 99.632812 C 54.3125 98.3125 52.851562 97.597656 51.507812 98.085938 Z M 51.507812 98.085938 "/><path style=" stroke:none;fill-rule:nonzero;fill:#eb690a;fill-opacity:1;" d="M 86.113281 91.261719 C 87.429688 90.804688 88.144531 89.339844 87.660156 87.992188 C 87.199219 86.675781 85.742188 85.957031 84.394531 86.445312 C 83.050781 86.933594 82.363281 88.367188 82.851562 89.714844 C 83.335938 91.03125 84.796875 91.75 86.113281 91.261719 Z M 86.113281 91.261719 "/><g style="fill:#eb690a;fill-opacity:1;"><g transform="translate(47.477935, 147.474151)"><path style="stroke:none" d="M 1.515625 -1.15625 L 8.4375 -1.21875 L 9.03125 -41.109375 L 1.34375 -41.234375 L 1.34375 -42.328125 L 17.28125 -42.15625 L 31.375 -14.71875 L 41.234375 -42.03125 L 58.625 -41.859375 L 58.625 -40.75 L 52.46875 -40.8125 C 52.445312 -40.632812 52.421875 -40.257812 52.390625 -39.6875 C 52.359375 -39.125 52.316406 -38.25 52.265625 -37.0625 C 52.222656 -35.875 52.171875 -34.316406 52.109375 -32.390625 C 52.046875 -30.460938 51.972656 -28.050781 51.890625 -25.15625 C 51.816406 -22.269531 51.738281 -18.835938 51.65625 -14.859375 C 51.582031 -10.890625 51.503906 -6.265625 51.421875 -0.984375 L 58.75 -0.984375 L 58.75 0.125 L 33.25 0.125 L 33.25 -0.984375 L 40.28125 -0.984375 L 41 -38.25 L 26.84375 0.75 L 9.953125 -31.734375 L 9.5 -1.21875 L 16.125 -1.28125 L 16.125 -0.171875 L 1.515625 -0.0625 Z M 1.515625 -1.15625 "/></g></g><g style="fill:#eb690a;fill-opacity:1;"><g transform="translate(108.012255, 147.474151)"><path style="stroke:none" d="M 26.25 -14.953125 C 26.25 -13.898438 25.910156 -12.953125 25.234375 -12.109375 C 24.554688 -11.265625 23.6875 -10.546875 22.625 -9.953125 C 21.5625 -9.359375 20.378906 -8.882812 19.078125 -8.53125 C 17.773438 -8.1875 16.5 -8.003906 15.25 -7.984375 C 15.175781 -7.984375 15 -7.992188 14.71875 -8.015625 C 14.4375 -8.035156 14.097656 -8.097656 13.703125 -8.203125 C 13.304688 -8.316406 12.859375 -8.492188 12.359375 -8.734375 C 11.867188 -8.972656 11.375 -9.316406 10.875 -9.765625 C 10.9375 -8.003906 11.097656 -6.492188 11.359375 -5.234375 C 11.628906 -3.972656 11.988281 -2.9375 12.4375 -2.125 C 12.882812 -1.320312 13.410156 -0.738281 14.015625 -0.375 C 14.617188 -0.0078125 15.28125 0.171875 16 0.171875 C 16.414062 0.171875 16.972656 0.0351562 17.671875 -0.234375 C 18.378906 -0.515625 19.113281 -0.941406 19.875 -1.515625 C 20.644531 -2.097656 21.394531 -2.832031 22.125 -3.71875 C 22.863281 -4.613281 23.484375 -5.6875 23.984375 -6.9375 L 24.84375 -9.140625 L 25.921875 -8.78125 L 25.4375 -7.453125 C 25 -6.273438 24.421875 -5.160156 23.703125 -4.109375 C 22.992188 -3.054688 22.164062 -2.117188 21.21875 -1.296875 C 20.28125 -0.472656 19.234375 0.1875 18.078125 0.6875 C 16.929688 1.195312 15.703125 1.492188 14.390625 1.578125 C 12.109375 1.492188 10.171875 1.082031 8.578125 0.34375 C 6.992188 -0.382812 5.703125 -1.3125 4.703125 -2.4375 C 3.710938 -3.570312 2.992188 -4.832031 2.546875 -6.21875 C 2.097656 -7.613281 1.875 -9.015625 1.875 -10.421875 C 1.875 -11.359375 2.015625 -12.378906 2.296875 -13.484375 C 2.585938 -14.585938 3.007812 -15.695312 3.5625 -16.8125 C 4.125 -17.9375 4.804688 -19.023438 5.609375 -20.078125 C 6.421875 -21.128906 7.335938 -22.0625 8.359375 -22.875 C 9.378906 -23.695312 10.5 -24.347656 11.71875 -24.828125 C 12.945312 -25.316406 14.265625 -25.5625 15.671875 -25.5625 C 16.960938 -25.519531 18.117188 -25.320312 19.140625 -24.96875 C 20.160156 -24.625 21.0625 -24.171875 21.84375 -23.609375 C 22.632812 -23.046875 23.304688 -22.40625 23.859375 -21.6875 C 24.421875 -20.96875 24.878906 -20.226562 25.234375 -19.46875 C 25.585938 -18.707031 25.84375 -17.929688 26 -17.140625 C 26.164062 -16.359375 26.25 -15.628906 26.25 -14.953125 Z M 15.1875 -24.453125 C 14.550781 -24.421875 13.960938 -24.066406 13.421875 -23.390625 C 12.878906 -22.710938 12.410156 -21.789062 12.015625 -20.625 C 11.628906 -19.46875 11.328125 -18.101562 11.109375 -16.53125 C 10.890625 -14.96875 10.78125 -13.28125 10.78125 -11.46875 C 11.28125 -10.894531 11.773438 -10.445312 12.265625 -10.125 C 12.765625 -9.8125 13.222656 -9.578125 13.640625 -9.421875 C 14.054688 -9.273438 14.40625 -9.179688 14.6875 -9.140625 C 14.96875 -9.109375 15.132812 -9.09375 15.1875 -9.09375 C 15.96875 -9.101562 16.609375 -9.265625 17.109375 -9.578125 C 17.617188 -9.898438 18.015625 -10.335938 18.296875 -10.890625 C 18.585938 -11.453125 18.789062 -12.117188 18.90625 -12.890625 C 19.03125 -13.671875 19.09375 -14.539062 19.09375 -15.5 C 19.09375 -16.6875 19.019531 -17.820312 18.875 -18.90625 C 18.726562 -19.988281 18.5 -20.941406 18.1875 -21.765625 C 17.882812 -22.585938 17.484375 -23.238281 16.984375 -23.71875 C 16.484375 -24.207031 15.882812 -24.453125 15.1875 -24.453125 Z M 15.1875 -24.453125 "/></g></g><g style="fill:#eb690a;fill-opacity:1;"><g transform="translate(136.253661, 147.474151)"><path style="stroke:none" d="M 13.734375 -18.921875 C 14.328125 -20.085938 14.960938 -21.007812 15.640625 -21.6875 C 16.316406 -22.363281 16.941406 -22.890625 17.515625 -23.265625 C 18.171875 -23.679688 18.835938 -23.976562 19.515625 -24.15625 C 20.347656 -24.238281 21.066406 -24.164062 21.671875 -23.9375 C 22.273438 -23.707031 22.769531 -23.375 23.15625 -22.9375 C 23.550781 -22.5 23.835938 -21.984375 24.015625 -21.390625 C 24.191406 -20.796875 24.28125 -20.171875 24.28125 -19.515625 C 24.28125 -18.878906 24.210938 -18.234375 24.078125 -17.578125 C 23.953125 -16.921875 23.785156 -16.296875 23.578125 -15.703125 C 23.367188 -15.109375 23.117188 -14.5625 22.828125 -14.0625 C 22.546875 -13.5625 22.253906 -13.164062 21.953125 -12.875 L 22.015625 -12.875 C 21.441406 -12.257812 20.894531 -11.832031 20.375 -11.59375 C 19.863281 -11.351562 19.359375 -11.234375 18.859375 -11.234375 C 17.960938 -11.234375 17.234375 -11.507812 16.671875 -12.0625 C 16.117188 -12.625 15.84375 -13.378906 15.84375 -14.328125 C 15.84375 -15.066406 16.007812 -15.867188 16.34375 -16.734375 C 16.6875 -17.609375 17.253906 -18.414062 18.046875 -19.15625 C 18.566406 -19.59375 19.101562 -19.953125 19.65625 -20.234375 C 20.132812 -20.472656 20.671875 -20.660156 21.265625 -20.796875 C 21.867188 -20.929688 22.46875 -20.890625 23.0625 -20.671875 C 22.90625 -21.429688 22.554688 -22.046875 22.015625 -22.515625 C 21.484375 -22.992188 20.691406 -23.175781 19.640625 -23.0625 C 18.878906 -22.90625 18.140625 -22.554688 17.421875 -22.015625 C 16.804688 -21.554688 16.164062 -20.875 15.5 -19.96875 C 14.84375 -19.070312 14.273438 -17.847656 13.796875 -16.296875 L 14.09375 -0.53125 L 19.21875 -0.6875 L 19.21875 0.421875 L 0.859375 0.796875 L 0.859375 -0.296875 L 4.828125 -0.359375 L 5.0625 -22.34375 L 1.8125 -22.515625 L 1.8125 -23.625 L 13.671875 -23.125 Z M 13.734375 -18.921875 "/></g></g><g style="fill:#eb690a;fill-opacity:1;"><g transform="translate(161.754339, 147.474151)"><path style="stroke:none" d="M 25.734375 -16.765625 C 25.734375 -16.191406 25.644531 -15.628906 25.46875 -15.078125 C 25.289062 -14.535156 25.03125 -14.050781 24.6875 -13.625 C 24.351562 -13.195312 23.929688 -12.851562 23.421875 -12.59375 C 22.921875 -12.34375 22.332031 -12.21875 21.65625 -12.21875 C 21.28125 -12.21875 20.875 -12.289062 20.4375 -12.4375 C 20 -12.582031 19.597656 -12.804688 19.234375 -13.109375 C 18.867188 -13.410156 18.5625 -13.78125 18.3125 -14.21875 C 18.0625 -14.664062 17.9375 -15.191406 17.9375 -15.796875 C 17.9375 -16.128906 17.972656 -16.476562 18.046875 -16.84375 C 18.128906 -17.21875 18.210938 -17.59375 18.296875 -17.96875 C 18.390625 -18.34375 18.476562 -18.695312 18.5625 -19.03125 C 18.644531 -19.375 18.6875 -19.6875 18.6875 -19.96875 C 18.6875 -21.375 18.347656 -22.472656 17.671875 -23.265625 C 16.992188 -24.054688 16.148438 -24.453125 15.140625 -24.453125 C 14.503906 -24.453125 13.914062 -24.109375 13.375 -23.421875 C 12.84375 -22.742188 12.378906 -21.804688 11.984375 -20.609375 C 11.597656 -19.421875 11.300781 -18.035156 11.09375 -16.453125 C 10.882812 -14.878906 10.78125 -13.195312 10.78125 -11.40625 C 10.78125 -7.28125 11.265625 -4.203125 12.234375 -2.171875 C 13.210938 -0.148438 14.488281 0.859375 16.0625 0.859375 C 17.007812 0.859375 17.894531 0.644531 18.71875 0.21875 C 19.550781 -0.207031 20.3125 -0.765625 21 -1.453125 C 21.695312 -2.148438 22.304688 -2.929688 22.828125 -3.796875 C 23.359375 -4.660156 23.800781 -5.53125 24.15625 -6.40625 L 25.265625 -6.046875 C 24.828125 -4.691406 24.269531 -3.550781 23.59375 -2.625 C 22.914062 -1.707031 22.191406 -0.941406 21.421875 -0.328125 C 20.648438 0.285156 19.867188 0.757812 19.078125 1.09375 C 18.296875 1.4375 17.570312 1.691406 16.90625 1.859375 C 16.238281 2.023438 15.675781 2.125 15.21875 2.15625 C 14.757812 2.1875 14.484375 2.203125 14.390625 2.203125 C 12.441406 2.203125 10.6875 1.800781 9.125 1 C 7.570312 0.195312 6.253906 -0.816406 5.171875 -2.046875 C 4.085938 -3.285156 3.253906 -4.648438 2.671875 -6.140625 C 2.097656 -7.628906 1.8125 -9.054688 1.8125 -10.421875 C 1.8125 -11.335938 1.929688 -12.347656 2.171875 -13.453125 C 2.410156 -14.554688 2.773438 -15.664062 3.265625 -16.78125 C 3.753906 -17.90625 4.363281 -18.992188 5.09375 -20.046875 C 5.832031 -21.097656 6.6875 -22.03125 7.65625 -22.84375 C 8.625 -23.664062 9.710938 -24.320312 10.921875 -24.8125 C 12.140625 -25.3125 13.484375 -25.5625 14.953125 -25.5625 C 16.742188 -25.5625 18.3125 -25.289062 19.65625 -24.75 C 21.007812 -24.21875 22.140625 -23.523438 23.046875 -22.671875 C 23.953125 -21.816406 24.625 -20.875 25.0625 -19.84375 C 25.507812 -18.8125 25.734375 -17.785156 25.734375 -16.765625 Z M 25.734375 -16.765625 "/></g></g><g style="fill:#eb690a;fill-opacity:1;"><g transform="translate(189.16161, 147.474151)"><path style="stroke:none" d="M 24.640625 1.15625 C 25.078125 1.125 25.492188 0.90625 25.890625 0.5 C 26.222656 0.164062 26.566406 -0.367188 26.921875 -1.109375 C 27.285156 -1.859375 27.585938 -2.925781 27.828125 -4.3125 L 28.921875 -4.203125 C 28.648438 -2.554688 28.28125 -1.296875 27.8125 -0.421875 C 27.34375 0.453125 26.867188 1.085938 26.390625 1.484375 C 25.835938 1.960938 25.253906 2.222656 24.640625 2.265625 C 24.160156 2.265625 23.546875 2.191406 22.796875 2.046875 C 22.054688 1.910156 21.316406 1.664062 20.578125 1.3125 C 19.847656 0.96875 19.175781 0.507812 18.5625 -0.0625 C 17.945312 -0.632812 17.519531 -1.367188 17.28125 -2.265625 C 16.46875 -0.890625 15.375 0.226562 14 1.09375 C 12.632812 1.957031 11.078125 2.390625 9.328125 2.390625 C 8.453125 2.390625 7.566406 2.285156 6.671875 2.078125 C 5.773438 1.878906 4.953125 1.550781 4.203125 1.09375 C 3.460938 0.644531 2.859375 0.0507812 2.390625 -0.6875 C 1.929688 -1.4375 1.703125 -2.367188 1.703125 -3.484375 C 1.703125 -4.878906 1.972656 -6.085938 2.515625 -7.109375 C 3.066406 -8.128906 3.796875 -8.984375 4.703125 -9.671875 C 5.617188 -10.359375 6.660156 -10.867188 7.828125 -11.203125 C 9.003906 -11.535156 10.21875 -11.703125 11.46875 -11.703125 C 12.320312 -11.703125 13.148438 -11.601562 13.953125 -11.40625 C 14.765625 -11.207031 15.585938 -10.863281 16.421875 -10.375 C 16.453125 -11.382812 16.53125 -12.394531 16.65625 -13.40625 C 16.789062 -14.414062 16.910156 -15.359375 17.015625 -16.234375 C 17.066406 -16.753906 17.109375 -17.171875 17.140625 -17.484375 C 17.171875 -17.804688 17.195312 -18.066406 17.21875 -18.265625 C 17.238281 -18.460938 17.253906 -18.609375 17.265625 -18.703125 C 17.273438 -18.804688 17.28125 -18.898438 17.28125 -18.984375 C 17.28125 -20.785156 16.953125 -22.222656 16.296875 -23.296875 C 15.640625 -24.367188 14.765625 -24.90625 13.671875 -24.90625 C 13.160156 -24.863281 12.632812 -24.773438 12.09375 -24.640625 C 11.5625 -24.503906 11.078125 -24.3125 10.640625 -24.0625 C 10.203125 -23.8125 9.84375 -23.5 9.5625 -23.125 C 9.28125 -22.757812 9.140625 -22.332031 9.140625 -21.84375 C 9.140625 -21.300781 9.304688 -20.875 9.640625 -20.5625 C 9.984375 -20.257812 10.359375 -19.953125 10.765625 -19.640625 C 11.171875 -19.335938 11.539062 -18.988281 11.875 -18.59375 C 12.21875 -18.195312 12.390625 -17.648438 12.390625 -16.953125 C 12.390625 -16.210938 12.273438 -15.597656 12.046875 -15.109375 C 11.816406 -14.628906 11.515625 -14.238281 11.140625 -13.9375 C 10.765625 -13.644531 10.335938 -13.429688 9.859375 -13.296875 C 9.378906 -13.171875 8.90625 -13.109375 8.4375 -13.109375 C 7.9375 -13.109375 7.441406 -13.191406 6.953125 -13.359375 C 6.472656 -13.523438 6.035156 -13.785156 5.640625 -14.140625 C 5.253906 -14.503906 4.9375 -14.972656 4.6875 -15.546875 C 4.4375 -16.128906 4.3125 -16.828125 4.3125 -17.640625 C 4.3125 -18.734375 4.578125 -19.773438 5.109375 -20.765625 C 5.648438 -21.753906 6.359375 -22.625 7.234375 -23.375 C 8.109375 -24.132812 9.101562 -24.75 10.21875 -25.21875 C 11.332031 -25.6875 12.460938 -25.941406 13.609375 -25.984375 C 14.679688 -25.984375 15.847656 -25.765625 17.109375 -25.328125 C 18.367188 -24.890625 19.550781 -24.144531 20.65625 -23.09375 C 21.757812 -22.039062 22.675781 -20.628906 23.40625 -18.859375 C 24.144531 -17.085938 24.515625 -14.875 24.515625 -12.21875 C 24.515625 -10.96875 24.46875 -9.773438 24.375 -8.640625 C 24.289062 -7.503906 24.195312 -6.453125 24.09375 -5.484375 C 24 -4.523438 23.90625 -3.648438 23.8125 -2.859375 C 23.726562 -2.066406 23.6875 -1.378906 23.6875 -0.796875 C 23.6875 -0.222656 23.738281 0.226562 23.84375 0.5625 C 23.957031 0.90625 24.179688 1.101562 24.515625 1.15625 Z M 16.765625 -3.84375 C 16.648438 -4.519531 16.5625 -5.226562 16.5 -5.96875 C 16.445312 -6.71875 16.421875 -7.46875 16.421875 -8.21875 L 16.421875 -9.03125 C 15.859375 -9.488281 15.253906 -9.828125 14.609375 -10.046875 C 13.960938 -10.265625 13.382812 -10.375 12.875 -10.375 C 11.625 -10.375 10.671875 -9.851562 10.015625 -8.8125 C 9.359375 -7.78125 9.03125 -6.410156 9.03125 -4.703125 C 9.03125 -3.992188 9.101562 -3.328125 9.25 -2.703125 C 9.394531 -2.085938 9.601562 -1.554688 9.875 -1.109375 C 10.144531 -0.671875 10.472656 -0.328125 10.859375 -0.078125 C 11.242188 0.171875 11.675781 0.296875 12.15625 0.296875 C 12.632812 0.296875 13.097656 0.175781 13.546875 -0.0625 C 13.992188 -0.300781 14.414062 -0.613281 14.8125 -1 C 15.207031 -1.382812 15.570312 -1.820312 15.90625 -2.3125 C 16.25 -2.8125 16.535156 -3.320312 16.765625 -3.84375 Z M 16.765625 -3.84375 "/></g></g><g style="fill:#eb690a;fill-opacity:1;"><g transform="translate(218.207359, 147.474151)"><path style="stroke:none" d="M 25.140625 -9.09375 L 25.4375 0.6875 L 1.28125 1.28125 L 17.28125 -23.921875 L 10.546875 -23.984375 C 9.710938 -23.984375 8.976562 -23.820312 8.34375 -23.5 C 7.707031 -23.1875 7.148438 -22.765625 6.671875 -22.234375 C 6.191406 -21.710938 5.785156 -21.113281 5.453125 -20.4375 C 5.128906 -19.757812 4.863281 -19.070312 4.65625 -18.375 C 4.445312 -17.6875 4.285156 -17.003906 4.171875 -16.328125 C 4.066406 -15.648438 4 -15.046875 3.96875 -14.515625 L 2.859375 -14.65625 L 3.78125 -25.265625 L 27.59375 -24.96875 L 11.53125 0 L 19.15625 -0.296875 C 19.832031 -0.210938 20.421875 -0.304688 20.921875 -0.578125 C 21.429688 -0.847656 21.863281 -1.222656 22.21875 -1.703125 C 22.582031 -2.191406 22.882812 -2.757812 23.125 -3.40625 C 23.363281 -4.050781 23.550781 -4.71875 23.6875 -5.40625 C 23.820312 -6.09375 23.914062 -6.757812 23.96875 -7.40625 C 24.019531 -8.050781 24.046875 -8.613281 24.046875 -9.09375 Z M 25.140625 -9.09375 "/></g></g><g style="fill:#eb690a;fill-opacity:1;"><g transform="translate(246.895622, 147.474151)"><path style="stroke:none" d="M 30.265625 -10.9375 C 30.265625 -9.5625 30.03125 -8.28125 29.5625 -7.09375 C 29.101562 -5.914062 28.476562 -4.835938 27.6875 -3.859375 C 26.90625 -2.878906 26.007812 -2.003906 25 -1.234375 C 24 -0.472656 22.957031 0.164062 21.875 0.6875 C 20.800781 1.21875 19.726562 1.625 18.65625 1.90625 C 17.582031 2.1875 16.585938 2.328125 15.671875 2.328125 L 15.375 2.328125 C 14.457031 2.304688 13.488281 2.15625 12.46875 1.875 C 11.445312 1.59375 10.429688 1.1875 9.421875 0.65625 C 8.421875 0.132812 7.46875 -0.507812 6.5625 -1.28125 C 5.664062 -2.050781 4.867188 -2.957031 4.171875 -4 C 3.472656 -5.050781 2.914062 -6.222656 2.5 -7.515625 C 2.082031 -8.816406 1.875 -10.253906 1.875 -11.828125 C 1.875 -13.429688 2.117188 -14.90625 2.609375 -16.25 C 3.109375 -17.59375 3.757812 -18.789062 4.5625 -19.84375 C 5.375 -20.894531 6.289062 -21.804688 7.3125 -22.578125 C 8.332031 -23.359375 9.363281 -24.003906 10.40625 -24.515625 C 11.457031 -25.035156 12.460938 -25.414062 13.421875 -25.65625 C 14.378906 -25.90625 15.21875 -26.03125 15.9375 -26.03125 L 16.171875 -26.03125 C 17.390625 -26 18.582031 -25.785156 19.75 -25.390625 C 20.925781 -25.003906 22.035156 -24.472656 23.078125 -23.796875 C 24.117188 -23.128906 25.082031 -22.332031 25.96875 -21.40625 C 26.851562 -20.476562 27.613281 -19.457031 28.25 -18.34375 C 28.882812 -17.238281 29.378906 -16.0625 29.734375 -14.8125 C 30.085938 -13.5625 30.265625 -12.269531 30.265625 -10.9375 Z M 20.734375 -11.40625 C 20.734375 -11.90625 20.734375 -12.59375 20.734375 -13.46875 C 20.734375 -14.34375 20.695312 -15.28125 20.625 -16.28125 C 20.5625 -17.28125 20.4375 -18.296875 20.25 -19.328125 C 20.070312 -20.367188 19.804688 -21.304688 19.453125 -22.140625 C 19.097656 -22.972656 18.632812 -23.648438 18.0625 -24.171875 C 17.5 -24.703125 16.789062 -24.96875 15.9375 -24.96875 C 14.3125 -24.96875 13.023438 -23.851562 12.078125 -21.625 C 11.140625 -19.40625 10.671875 -16.039062 10.671875 -11.53125 C 10.671875 -9.28125 10.765625 -7.351562 10.953125 -5.75 C 11.140625 -4.144531 11.429688 -2.820312 11.828125 -1.78125 C 12.222656 -0.75 12.738281 0.00390625 13.375 0.484375 C 14.007812 0.972656 14.773438 1.21875 15.671875 1.21875 L 15.9375 1.21875 C 16.789062 1.175781 17.5 0.90625 18.0625 0.40625 C 18.632812 -0.0820312 19.101562 -0.835938 19.46875 -1.859375 C 19.832031 -2.878906 20.109375 -4.175781 20.296875 -5.75 C 20.492188 -7.320312 20.640625 -9.207031 20.734375 -11.40625 Z M 20.734375 -11.40625 "/></g></g></g></svg>